<svg width="800" height="800" viewBox="0 0 800 800" fill="none" xmlns="http://www.w3.org/2000/svg">
<g clip-path="url(#clip0_8_33)">
<g filter="url(#filter0_f_8_33)">
<path d="M582.399 275.104C691.752 275.104 780.399 190.709 780.399 86.6038C780.399 -17.5019 691.752 -101.896 582.399 -101.896C473.047 -101.896 384.399 -17.5019 384.399 86.6038C384.399 190.709 473.047 275.104 582.399 275.104Z" fill="#0018E5" fill-opacity="0.1"/>
<path d="M718.064 555.499C827.416 555.499 916.064 471.105 916.064 366.999C916.064 262.893 827.416 178.499 718.064 178.499C608.711 178.499 520.064 262.893 520.064 366.999C520.064 471.105 608.711 555.499 718.064 555.499Z" fill="#B0B8FF" fill-opacity="0.3"/>
<path d="M864.159 857.398C973.512 857.398 1062.16 773.004 1062.16 668.898C1062.16 564.792 973.512 480.398 864.159 480.398C754.807 480.398 666.159 564.792 666.159 668.898C666.159 773.004 754.807 857.398 864.159 857.398Z" fill="#FF804E" fill-opacity="0.4"/>
</g>
</g>
<defs>
<filter id="filter0_f_8_33" x="304.399" y="-181.896" width="837.76" height="1119.29" filterUnits="userSpaceOnUse" color-interpolation-filters="sRGB">
<feFlood flood-opacity="0" result="BackgroundImageFix"/>
<feBlend mode="normal" in="SourceGraphic" in2="BackgroundImageFix" result="shape"/>
<feGaussianBlur stdDeviation="32" result="effect1_foregroundBlur_8_33"/>
</filter>
<clipPath id="clip0_8_33">
<rect width="800" height="800" fill="white"/>
</clipPath>
</defs>
</svg>
