<svg width="800" height="800" viewBox="0 0 800 800" fill="none" xmlns="http://www.w3.org/2000/svg">
<g clip-path="url(#clip0_17_2)">
<mask id="mask0_17_2" style="mask-type:luminance" maskUnits="userSpaceOnUse" x="0" y="0" width="800" height="800">
<path d="M800 0H0V800H800V0Z" fill="white"/>
</mask>
<g mask="url(#mask0_17_2)">
<g filter="url(#filter0_f_17_2)">
<path d="M544 279C653.353 279 742 194.605 742 90.4998C742 -13.6059 653.353 -98 544 -98C434.648 -98 346 -13.6059 346 90.4998C346 194.605 434.648 279 544 279Z" fill="#0018E5" fill-opacity="0.1"/>
<path d="M700 465C809.352 465 898 380.606 898 276.5C898 172.394 809.352 88 700 88C590.647 88 502 172.394 502 276.5C502 380.606 590.647 465 700 465Z" fill="#B0B8FF" fill-opacity="0.3"/>
<path d="M917 527C1026.35 527 1115 442.606 1115 338.5C1115 234.394 1026.35 150 917 150C807.648 150 719 234.394 719 338.5C719 442.606 807.648 527 917 527Z" fill="#FF804E" fill-opacity="0.25"/>
</g>
</g>
</g>
<defs>
<filter id="filter0_f_17_2" x="282" y="-162" width="897.001" height="753" filterUnits="userSpaceOnUse" color-interpolation-filters="sRGB">
<feFlood flood-opacity="0" result="BackgroundImageFix"/>
<feBlend mode="normal" in="SourceGraphic" in2="BackgroundImageFix" result="shape"/>
<feGaussianBlur stdDeviation="32" result="effect1_foregroundBlur_17_2"/>
</filter>
<clipPath id="clip0_17_2">
<rect width="800" height="800" fill="white"/>
</clipPath>
</defs>
</svg>
